<svg width="11" height="11" viewBox="0 0 11 11" fill="none" xmlns="http://www.w3.org/2000/svg">
<path fill-rule="evenodd" clip-rule="evenodd" d="M7.89961 9.18368L0.265804 1.54988C-0.0886005 1.19547 -0.0886016 0.620206 0.265803 0.265802C0.620207 -0.0886019 1.19547 -0.0886002 1.54988 0.265804L9.18368 7.89961L9.18368 0.978358C9.18304 0.476928 9.59009 0.0698736 10.0915 0.0705156C10.593 0.0698736 11 0.476925 10.9994 0.978355L11 10.0768C10.9994 10.0812 10.9994 10.0864 10.9994 10.0915C10.9994 10.3419 10.8979 10.5692 10.7336 10.7336C10.5692 10.8979 10.3419 10.9994 10.0915 10.9994C10.0864 10.9994 10.0812 10.9994 10.0768 11L0.978357 10.9994C0.476927 11 0.0698758 10.5929 0.0705179 10.0915C0.0698758 9.59009 0.476927 9.18304 0.978357 9.18368H7.89961Z" fill="white"/>
</svg>
