<svg width="12" height="12" viewBox="0 0 12 12" fill="none" xmlns="http://www.w3.org/2000/svg">
<path d="M10.83 11.5248C10.6981 11.6568 10.5463 11.7294 10.3747 11.7426C10.2031 11.7294 10.0513 11.6568 9.91929 11.5248L5.8011 7.40662L1.74231 11.4654C1.61032 11.5974 1.45853 11.67 1.28693 11.6832C1.11534 11.67 0.963551 11.5974 0.831558 11.4654L0.19799 10.8318C0.0659965 10.6999 -1.96685e-07 10.5547 0 10.3963C4.91713e-08 10.2115 0.0659967 10.0531 0.19799 9.92109L4.25678 5.8623L0.257387 1.8629C0.125394 1.73091 0.0593971 1.58572 0.0593975 1.42733C0.0593971 1.24254 0.125394 1.08414 0.257387 0.952151L0.950351 0.259187C1.08234 0.127193 1.23414 0.0677962 1.40573 0.0809962C1.57732 0.0677966 1.72911 0.127193 1.8611 0.259187L5.8605 4.25858L9.93909 0.17999C10.0711 0.0479973 10.2229 -0.0113995 10.3945 0.00180007C10.5661 -0.0113999 10.7179 0.0479969 10.8498 0.17999L11.4834 0.813558C11.6154 0.945551 11.6814 1.10394 11.6814 1.28873C11.6814 1.44713 11.6154 1.59232 11.4834 1.72431L7.40482 5.8029L11.523 9.92109C11.655 10.0531 11.721 10.2115 11.721 10.3963C11.721 10.5547 11.655 10.6999 11.523 10.8318L10.83 11.5248Z" fill="#D92F30"/>
</svg>
