<svg width="17" height="19" viewBox="0 0 17 19" fill="none" xmlns="http://www.w3.org/2000/svg">
<path fill-rule="evenodd" clip-rule="evenodd" d="M7.57377 12.3591L7.57377 1.42002C7.57377 0.912171 7.98872 0.5 8.5 0.5C9.01128 0.5 9.42623 0.912171 9.42623 1.42002V12.3591L14.4187 7.40007C14.7799 7.04034 15.3672 7.04034 15.7284 7.40007C16.0905 7.75888 16.0905 8.34217 15.7284 8.70098L9.16596 15.2203C9.16225 15.2231 9.15855 15.2268 9.15484 15.2304C8.97423 15.4098 8.73711 15.5 8.5 15.5C8.26288 15.5 8.02577 15.4098 7.84515 15.2304C7.84145 15.2268 7.83774 15.2231 7.83404 15.2203L1.27162 8.70098C0.909461 8.34217 0.909461 7.75888 1.27162 7.40007C1.63285 7.04034 2.22008 7.04034 2.58131 7.40007L7.57377 12.3591Z" fill="#D92F30"/>
<path d="M1 17.5H16" stroke="#D92F30" stroke-width="2" stroke-linecap="round"/>
</svg>
