<svg width="40" height="40" viewBox="0 0 40 40" fill="none" xmlns="http://www.w3.org/2000/svg">
<rect x="15" y="15" width="10" height="10" fill="#D92F30"/>
<rect x="-0.5" y="0.5" width="14" height="9" transform="matrix(-1 0 0 1 14 0)" fill="#D92F30" stroke="#D92F30"/>
<rect x="14.5" y="39.5" width="14" height="9" transform="rotate(-180 14.5 39.5)" fill="#D92F30" stroke="#D92F30"/>
<rect x="25.5" y="0.5" width="14" height="9" fill="#D92F30" stroke="#D92F30"/>
<rect x="0.5" y="-0.5" width="14" height="9" transform="matrix(1 0 0 -1 25 39)" fill="#D92F30" stroke="#D92F30"/>
<rect x="-0.5" y="0.5" width="9" height="14" transform="matrix(-1 0 0 1 9 0)" fill="#D92F30" stroke="#D92F30"/>
<rect x="9.5" y="39.5" width="9" height="14" transform="rotate(-180 9.5 39.5)" fill="#D92F30" stroke="#D92F30"/>
<rect x="30.5" y="0.5" width="9" height="14" fill="#D92F30" stroke="#D92F30"/>
<rect x="0.5" y="-0.5" width="9" height="14" transform="matrix(1 0 0 -1 30 39)" fill="#D92F30" stroke="#D92F30"/>
</svg>
