<svg width="60" height="60" viewBox="0 0 60 60" fill="none" xmlns="http://www.w3.org/2000/svg">
<path d="M12.5067 0C5.62667 0 0 5.61384 0 12.4962V47.4842C0 54.3666 5.62667 60 12.5067 60H47.4884C54.3685 60 60 54.3665 60 47.4842V12.4962C60 5.61393 54.3685 0 47.4884 0H12.5067ZM45.648 11.7344C46.3376 11.7345 46.9995 12.0095 47.4884 12.4962C48.5108 13.5163 48.5108 15.1727 47.4884 16.1927L16.1826 47.5087C15.1629 48.5315 13.5069 48.5315 12.4872 47.5087C11.4749 46.4905 11.4749 44.85 12.4872 43.8316L43.8125 12.4962C44.3018 12.0095 44.9583 11.7344 45.648 11.7344Z" fill="#C7C7C7"/>
</svg>
