<svg width="22" height="20" viewBox="0 0 22 20" fill="none" xmlns="http://www.w3.org/2000/svg">
<path d="M5.76757 16.2511C5.78595 16.2818 5.81352 16.3124 5.84415 16.3369C5.91767 16.389 5.98813 16.4441 6.06165 16.4962C6.13211 16.5544 6.20256 16.6126 6.27608 16.6677C6.30672 16.6922 6.34041 16.7106 6.37717 16.7229C9.29041 18.7968 11.8299 19.8996 13.9344 20.0007C13.9957 20.0037 14.057 20.0037 14.1152 20.0037C15.316 20.0037 16.4678 19.4309 17.2275 18.4475L18.1741 17.2222C18.6367 16.6249 18.5264 15.761 17.926 15.2984L15.0679 13.0898C14.7768 12.8661 14.4184 12.7681 14.0539 12.8141C13.6894 12.86 13.3677 13.0469 13.1441 13.3348L12.2098 14.5448C12.2006 14.5571 12.1853 14.5816 12.1791 14.5939C12.1761 14.6 12.075 14.7838 11.7748 14.8389C11.3857 14.9124 10.4667 14.8114 8.6563 13.2828L8.50007 13.1602C6.57629 11.8032 6.24545 10.9393 6.21788 10.5441C6.19644 10.2409 6.34654 10.0969 6.34654 10.0969C6.36492 10.0816 6.38024 10.0662 6.39249 10.0479L7.32681 8.83785C7.78937 8.2405 7.67909 7.37664 7.07868 6.91407L4.17157 4.66864C3.57422 4.20608 2.71036 4.31636 2.24779 4.91677L1.30122 6.14211C0.532324 7.13769 0.296448 8.52232 0.682429 9.75991C1.31654 11.7756 3.02588 13.9567 5.76757 16.2511Z" fill="#838B8B"/>
<path d="M9.29401 5.64144C12.4125 5.24015 15.2736 7.45188 15.6719 10.5704C15.7209 10.9563 16.0517 11.2382 16.4316 11.2382C16.4653 11.2382 16.4959 11.2351 16.5296 11.232C16.9493 11.1769 17.2464 10.794 17.1913 10.3743C16.6828 6.41953 13.0527 3.61351 9.09796 4.12203C8.67828 4.17717 8.38113 4.56009 8.43628 4.97976C8.49142 5.39944 8.87433 5.69658 9.29401 5.64144Z" fill="#838B8B"/>
<path d="M16.9207 2.35823C14.5344 0.514105 11.5721 -0.291553 8.58233 0.0944275C8.16265 0.149568 7.86551 0.532485 7.92065 0.952162C7.97579 1.37184 8.35871 1.66898 8.77838 1.61384C11.3638 1.283 13.9248 1.97838 15.9864 3.57132C18.048 5.16425 19.3683 7.46788 19.6992 10.0533C19.7482 10.4393 20.079 10.7211 20.4589 10.7211C20.4926 10.7211 20.5232 10.7181 20.5569 10.715C20.9766 10.6599 21.2737 10.277 21.2186 9.85729C20.8326 6.86441 19.3071 4.20236 16.9207 2.35823Z" fill="#838B8B"/>
</svg>
