<svg width="12" height="12" viewBox="0 0 12 12" fill="none" xmlns="http://www.w3.org/2000/svg">
<g clip-path="url(#clip0_4425_3397)">
<path d="M6.378 8.34C5.706 8.34 5.18333 8.13467 4.81 7.724C4.43667 7.31333 4.25 6.744 4.25 6.016C4.25 5.26933 4.44133 4.69533 4.824 4.294C5.216 3.88333 5.75267 3.678 6.434 3.678C6.658 3.678 6.87267 3.70133 7.078 3.748C7.29267 3.78533 7.50267 3.85067 7.708 3.944L7.47 4.644C7.29267 4.56933 7.11533 4.51333 6.938 4.476C6.77 4.43867 6.59733 4.42 6.42 4.42C6.00933 4.42 5.69667 4.55533 5.482 4.826C5.27667 5.08733 5.174 5.484 5.174 6.016C5.174 6.52 5.27667 6.912 5.482 7.192C5.68733 7.46267 5.986 7.598 6.378 7.598C6.56467 7.598 6.76067 7.57467 6.966 7.528C7.18067 7.472 7.40467 7.39733 7.638 7.304V8.06C7.414 8.15333 7.19933 8.22333 6.994 8.27C6.78867 8.31667 6.58333 8.34 6.378 8.34ZM6 11.77C5.20667 11.77 4.46 11.6207 3.76 11.322C3.06 11.0233 2.444 10.6127 1.912 10.09C1.38933 9.558 0.978667 8.942 0.68 8.242C0.381333 7.542 0.232 6.79533 0.232 6.002C0.232 5.19933 0.381333 4.45267 0.68 3.762C0.978667 3.062 1.38933 2.45067 1.912 1.928C2.444 1.396 3.06 0.980666 3.76 0.681999C4.46 0.383333 5.20667 0.233999 6 0.233999C6.80267 0.233999 7.54933 0.383333 8.24 0.681999C8.94 0.980666 9.55133 1.396 10.074 1.928C10.606 2.45067 11.0213 3.062 11.32 3.762C11.6187 4.45267 11.768 5.19933 11.768 6.002C11.768 6.79533 11.6187 7.542 11.32 8.242C11.0213 8.942 10.606 9.558 10.074 10.09C9.55133 10.6127 8.94 11.0233 8.24 11.322C7.54933 11.6207 6.80267 11.77 6 11.77ZM6 10.986C6.69067 10.986 7.33467 10.86 7.932 10.608C8.53867 10.3467 9.07067 9.98733 9.528 9.53C9.98533 9.07267 10.34 8.54533 10.592 7.948C10.8533 7.34133 10.984 6.69267 10.984 6.002C10.984 5.31133 10.8533 4.66733 10.592 4.07C10.34 3.46333 9.98533 2.93133 9.528 2.474C9.07067 2.01667 8.53867 1.662 7.932 1.41C7.33467 1.14867 6.69067 1.018 6 1.018C5.30933 1.018 4.66067 1.14867 4.054 1.41C3.45667 1.662 2.92933 2.01667 2.472 2.474C2.01467 2.93133 1.65533 3.46333 1.394 4.07C1.142 4.66733 1.016 5.31133 1.016 6.002C1.016 6.69267 1.142 7.34133 1.394 7.948C1.65533 8.54533 2.01467 9.07267 2.472 9.53C2.92933 9.98733 3.45667 10.3467 4.054 10.608C4.66067 10.86 5.30933 10.986 6 10.986Z" fill="#838B8B"/>
</g>
<defs>
<clipPath id="clip0_4425_3397">
<rect width="12" height="12" fill="white"/>
</clipPath>
</defs>
</svg>
