<svg width="20" height="20" viewBox="0 0 20 20" fill="none" xmlns="http://www.w3.org/2000/svg">
<circle cx="10" cy="10" r="10" fill="#D92F30"/>
<path d="M14.2399 14.8145C14.1273 14.9269 13.9977 14.9888 13.8514 15C13.705 14.9888 13.5755 14.9269 13.4628 14.8145L9.94932 11.3075L6.48649 14.7639C6.37387 14.8764 6.24437 14.9382 6.09797 14.9494C5.95158 14.9382 5.82207 14.8764 5.70946 14.7639L5.16892 14.2244C5.05631 14.112 5 13.9884 5 13.8535C5 13.6961 5.05631 13.5612 5.16892 13.4488L8.63176 9.99234L5.21959 6.58645C5.10698 6.47404 5.05068 6.3504 5.05068 6.21551C5.05068 6.05814 5.10698 5.92326 5.21959 5.81085L5.81081 5.22072C5.92342 5.10832 6.05293 5.05774 6.19932 5.06898C6.34572 5.05774 6.47523 5.10832 6.58784 5.22072L10 8.62661L13.4797 5.15328C13.5923 5.04087 13.7218 4.99029 13.8682 5.00153C14.0146 4.99029 14.1441 5.04087 14.2568 5.15328L14.7973 5.69283C14.9099 5.80523 14.9662 5.94012 14.9662 6.09749C14.9662 6.23237 14.9099 6.35602 14.7973 6.46842L11.3176 9.94175L14.8311 13.4488C14.9437 13.5612 15 13.6961 15 13.8535C15 13.9884 14.9437 14.112 14.8311 14.2244L14.2399 14.8145Z" fill="white"/>
</svg>
