<svg width="23" height="23" viewBox="0 0 23 23" fill="none" xmlns="http://www.w3.org/2000/svg">
<path d="M22.6425 20.9421L18.7098 16.9474C18.7098 16.9474 18.5907 16.9474 18.5907 16.8263C19.9016 15.0105 20.7358 12.8316 20.7358 10.5316C20.7358 4.72105 16.0881 0 10.3679 0C4.64767 0 0 4.72105 0 10.5316C0 16.3421 4.64767 21.0632 10.3679 21.0632C12.8705 21.0632 15.2539 20.0947 17.0415 18.6421L20.9741 22.6368C21.2124 22.8789 21.57 23 21.8083 23C22.0466 23 22.4041 22.8789 22.6425 22.6368C23.1192 22.1526 23.1192 21.4263 22.6425 20.9421ZM10.3679 18.6421C5.95855 18.6421 2.38342 15.0105 2.38342 10.5316C2.38342 6.05263 5.95855 2.42105 10.3679 2.42105C14.7772 2.42105 18.3523 6.05263 18.3523 10.5316C18.3523 15.0105 14.7772 18.6421 10.3679 18.6421Z" fill="#C7C7C7"/>
</svg>
