<svg width="24" height="24" viewBox="0 0 24 24" fill="none" xmlns="http://www.w3.org/2000/svg">
<path fill-rule="evenodd" clip-rule="evenodd" d="M16.628 0.900838C18.079 1.49957 19.3962 2.37896 20.5033 3.48803C21.6159 4.5907 22.4979 5.90199 23.0981 7.34605C23.6982 8.79011 24.0048 10.3383 23.9999 11.901C23.9969 18.459 18.6354 23.794 12.0502 23.794H12.0452C10.0501 23.7937 8.08697 23.2959 6.33507 22.346L0 24L1.69605 17.837C0.650084 16.034 0.100476 13.988 0.100476 11.892C0.10349 5.33502 5.46393 4.09774e-05 12.0502 4.09774e-05C13.621 -0.00407623 15.177 0.302104 16.628 0.900838ZM17.3912 14.1189C17.0961 13.986 15.6445 13.3457 15.3742 13.2565C15.103 13.1682 14.9063 13.1245 14.7086 13.3902C14.5128 13.6551 13.9465 14.2518 13.7746 14.4284C13.6027 14.6059 13.4298 14.6273 13.1348 14.4953C13.0855 14.473 13.018 14.4466 12.9344 14.4139C12.5171 14.251 11.6997 13.9317 10.7601 13.1798C9.88283 12.477 9.28968 11.6092 9.11779 11.3434C8.94591 11.0785 9.09991 10.9349 9.24695 10.8029C9.33667 10.723 9.43993 10.6102 9.54274 10.498C9.59249 10.4437 9.64213 10.3895 9.69008 10.3391C9.81473 10.2085 9.86894 10.1094 9.94228 9.97544C9.95603 9.9503 9.97047 9.92393 9.98616 9.89589C10.0845 9.7193 10.0358 9.565 9.96132 9.43211C9.91008 9.34073 9.615 8.69518 9.35586 8.12827C9.23816 7.87077 9.12787 7.6295 9.05122 7.46375C8.83937 7.00876 8.62521 7.00936 8.45359 7.00983C8.43042 7.00989 8.40804 7.00996 8.38653 7.00889C8.21465 7.00176 8.01792 6.99998 7.8202 6.99998C7.62348 6.99998 7.30355 7.06598 7.0333 7.33175C7.01598 7.34873 6.99663 7.36726 6.97559 7.38741C6.66836 7.68158 6 8.32154 6 9.54271C6 10.8312 7.03328 12.077 7.1996 12.2776L7.20519 12.2843C7.2151 12.2961 7.23303 12.3192 7.25874 12.3522C7.61693 12.8126 9.48603 15.2152 12.2495 16.2862C12.9539 16.5591 13.5034 16.7223 13.9326 16.8436C14.64 17.046 15.2838 17.0175 15.7915 16.9488C16.3589 16.873 17.5382 16.3076 17.7846 15.6886C18.031 15.0696 18.031 14.539 17.9565 14.4284C17.8972 14.3392 17.7584 14.279 17.5515 14.1893C17.5019 14.1678 17.4484 14.1446 17.3912 14.1189Z" fill="#838B8B"/>
</svg>
