<svg width="24" height="24" viewBox="0 0 24 24" fill="none" xmlns="http://www.w3.org/2000/svg">
<path d="M23.498 6.641C23.3624 6.13028 23.095 5.66414 22.7226 5.28926C22.3502 4.91439 21.8858 4.64394 21.376 4.505C19.505 4 12 4 12 4C12 4 4.495 4 2.623 4.505C2.11341 4.64419 1.64929 4.91473 1.27708 5.28958C0.904861 5.66443 0.637591 6.13044 0.502 6.641C0 8.525 0 12.455 0 12.455C0 12.455 0 16.385 0.502 18.269C0.637586 18.7797 0.904975 19.2459 1.27739 19.6207C1.64981 19.9956 2.11418 20.2661 2.624 20.405C4.495 20.91 12 20.91 12 20.91C12 20.91 19.505 20.91 21.377 20.405C21.8869 20.2662 22.3513 19.9957 22.7237 19.6208C23.0961 19.246 23.3635 18.7798 23.499 18.269C24 16.385 24 12.455 24 12.455C24 12.455 24 8.525 23.498 6.641ZM9.545 16.023V8.887L15.818 12.455L9.545 16.023Z" fill="#838B8B"/>
</svg>
